<?xml version="1.0" standalone="no"?>
<!DOCTYPE svg PUBLIC "-//W3C//DTD SVG 20010904//EN"
 "http://www.w3.org/TR/2001/REC-SVG-20010904/DTD/svg10.dtd">
<svg version="1.0" xmlns="http://www.w3.org/2000/svg"
 width="1000.000000pt" height="1000.000000pt" viewBox="0 0 1000.000000 1000.000000"
 preserveAspectRatio="xMidYMid meet">
<metadata>
Created by potrace 1.14, written by Peter Selinger 2001-2017
</metadata>
<g transform="translate(0.000000,1000.000000) scale(0.100000,-0.100000)"
fill="#000000" stroke="none">
<path d="M4562 9931 c-11 -7 -11 -22 3 -85 8 -43 23 -88 31 -102 20 -30 66
-32 93 -5 17 17 18 25 10 53 -6 18 -13 42 -16 53 -11 36 -34 63 -68 79 -38 18
-36 18 -53 7z"/>
<path d="M3183 9689 c-17 -17 -16 -62 3 -134 17 -69 38 -105 59 -105 18 0 20
47 4 137 -13 73 -45 123 -66 102z"/>
<path d="M3837 9232 c-11 -13 -17 -58 -22 -182 -8 -179 -18 -216 -73 -267 -24
-22 -112 -73 -126 -73 -11 0 -34 56 -41 97 -4 24 -11 45 -16 49 -5 3 -9 14 -9
25 0 50 -69 152 -142 209 -53 43 -68 44 -68 4 0 -50 93 -387 120 -436 6 -10
10 -23 10 -30 0 -11 92 -256 125 -333 7 -16 15 -37 18 -45 4 -8 6 8 6 35 -1
90 -5 84 54 78 53 -5 54 -5 70 28 8 19 23 86 32 149 10 63 26 132 37 154 21
41 18 40 113 21 23 -5 35 -2 48 13 24 26 77 241 77 310 0 75 -37 151 -87 179
-54 29 -108 36 -126 15z"/>
<path d="M6710 9060 c-133 -72 -193 -185 -235 -445 -22 -140 -35 -202 -53
-260 -43 -144 -123 -237 -230 -268 -139 -41 -218 -33 -385 37 -120 50 -212 72
-259 61 -49 -11 -148 -10 -291 3 -70 7 -196 12 -280 12 l-152 0 -48 98 c-111
223 -119 235 -186 305 -59 61 -82 62 -111 1 -17 -35 -21 -56 -16 -90 7 -52 20
-75 99 -169 52 -61 105 -151 95 -160 -1 -1 -50 -9 -106 -17 l-104 -15 -26 34
c-22 27 -34 33 -66 33 -33 0 -45 -7 -78 -40 -21 -23 -38 -47 -38 -55 0 -9 -22
-21 -57 -30 -32 -9 -99 -30 -148 -46 -50 -16 -100 -29 -112 -29 -15 0 -42 25
-89 85 -38 47 -74 85 -80 85 -21 0 -26 -39 -19 -144 l7 -101 -71 -35 -71 -34
-27 25 c-34 31 -78 59 -93 59 -8 0 -10 -24 -8 -72 l3 -71 -75 -45 c-41 -25
-112 -69 -158 -99 -45 -29 -87 -53 -92 -53 -5 0 -39 14 -77 31 -95 42 -91 41
-256 105 -158 61 -288 132 -350 192 -56 54 -69 83 -112 252 -23 89 -32 96
-120 105 -41 4 -77 11 -81 16 -3 5 -11 9 -19 9 -8 0 -53 18 -102 41 -48 22
-92 41 -98 42 -5 1 -10 -20 -11 -50 -1 -57 -12 -76 -56 -99 -55 -29 -32 -102
71 -217 33 -38 68 -89 77 -113 12 -33 22 -44 38 -44 11 0 59 -7 106 -16 378
-71 575 -174 635 -330 17 -46 17 -48 -1 -61 -12 -9 -31 -12 -49 -8 -16 3 -73
8 -126 11 -80 6 -100 4 -121 -10 -23 -15 -26 -24 -25 -74 0 -69 -17 -106 -74
-158 -148 -136 -169 -165 -169 -229 0 -45 -9 -65 -29 -65 -33 0 -120 -49 -174
-98 -79 -72 -109 -86 -170 -78 l-50 7 6 -30 c4 -16 14 -45 24 -63 54 -102 83
-165 83 -181 0 -10 -7 -33 -14 -52 -21 -49 -49 -46 -145 14 -115 72 -177 77
-217 15 -18 -26 -18 -27 11 -50 16 -12 79 -48 140 -78 132 -65 209 -129 248
-210 32 -66 33 -93 7 -180 -20 -63 -22 -65 -58 -71 -72 -12 -102 -26 -102 -45
0 -10 4 -21 9 -25 40 -24 59 -139 41 -255 -10 -73 -38 -392 -39 -457 -1 -28
-9 -36 -68 -74 -132 -83 -192 -100 -299 -85 l-51 7 -12 -48 c-13 -50 -70 -173
-108 -233 -12 -19 -44 -78 -71 -130 l-48 -95 -100 -32 c-54 -17 -119 -37 -144
-44 -113 -29 -234 -71 -293 -100 -69 -35 -156 -129 -119 -129 5 0 37 12 72 26
155 63 289 79 383 47 67 -23 129 -84 150 -148 21 -61 22 -169 2 -246 -9 -33
-13 -63 -11 -68 6 -9 53 -1 156 24 180 45 354 57 446 33 49 -14 120 -68 143
-110 11 -23 10 -30 -12 -65 -35 -55 -58 -127 -64 -198 -6 -70 15 -141 79 -271
22 -45 38 -90 36 -99 -1 -9 -20 -23 -41 -30 -48 -16 -83 -48 -92 -82 -9 -37 6
-47 46 -29 104 45 196 67 316 73 101 5 115 4 157 -17 78 -38 114 -119 102
-231 l-7 -62 38 7 c100 18 215 26 286 20 l78 -7 115 -100 c62 -55 162 -137
221 -181 58 -45 108 -86 110 -93 3 -7 -34 -53 -80 -102 -84 -88 -112 -137
-105 -183 3 -21 8 -23 63 -22 75 1 141 32 245 114 41 33 82 60 91 60 10 0 84
-33 166 -74 81 -40 192 -91 246 -112 94 -36 100 -40 122 -84 49 -97 84 -319
85 -529 0 -81 9 -87 21 -13 33 203 60 268 136 331 70 58 97 53 138 -28 81
-161 93 -342 46 -668 -35 -242 -39 -321 -16 -330 19 -7 55 24 55 46 0 38 88
263 152 386 128 248 285 433 475 558 116 76 198 112 281 122 l59 7 81 -164
c110 -223 162 -279 274 -298 65 -10 84 2 68 44 -14 38 -13 92 4 124 17 33 76
88 134 126 37 25 48 28 91 23 176 -21 302 -181 336 -425 7 -56 5 -55 93 -67
78 -10 141 -70 170 -159 8 -24 16 -126 21 -251 8 -236 15 -262 77 -313 50 -42
99 -44 108 -6 12 47 -2 141 -50 334 -14 58 -30 121 -34 140 -5 19 -16 62 -25
95 -21 77 -34 130 -44 180 -5 22 -13 60 -19 85 -53 216 -61 465 -21 600 16 55
41 110 50 110 4 0 15 -26 23 -58 35 -124 74 -176 102 -137 16 21 19 124 5 171
-5 17 -12 58 -16 91 l-7 61 47 28 c71 41 127 43 199 5 71 -38 105 -39 136 -6
26 27 26 30 -15 180 -7 28 -21 86 -30 130 -10 44 -19 90 -22 101 -4 17 24 49
132 155 75 74 140 135 144 137 7 2 139 -92 197 -139 274 -231 414 -402 538
-662 62 -129 64 -130 128 -85 41 28 58 58 58 99 0 45 -25 81 -158 222 -112
119 -142 166 -142 225 0 53 25 82 76 89 55 7 107 -21 164 -89 73 -87 111 -118
143 -118 27 0 29 2 22 27 -8 33 -64 109 -145 199 -70 77 -100 135 -100 193 0
43 23 101 40 101 5 0 33 -14 62 -31 29 -16 77 -42 107 -56 50 -24 57 -25 80
-12 23 13 26 22 29 72 2 40 -3 75 -17 113 -28 74 -27 152 4 239 28 78 30 95
14 95 -14 0 -63 21 -164 71 -145 72 -289 211 -336 327 l-22 53 61 182 c33 100
66 206 72 235 11 47 17 55 53 74 23 11 59 26 81 32 52 15 57 38 18 80 -63 67
-75 101 -47 130 13 12 34 14 119 9 57 -3 114 -3 128 0 16 4 37 27 61 65 46 75
127 151 197 185 110 54 238 79 425 84 180 6 225 16 225 53 0 10 -8 26 -17 35
-15 15 -36 16 -198 10 -100 -4 -205 -4 -233 0 -46 6 -52 10 -52 31 0 13 14 46
31 74 37 60 34 89 -13 118 -27 17 -58 21 -168 26 -252 12 -314 24 -367 76 -53
52 -67 129 -68 385 l-1 220 -38 70 c-20 38 -43 76 -51 85 -40 44 -11 74 130
130 180 72 255 121 289 189 17 33 30 157 18 165 -5 3 -32 -6 -61 -19 -28 -14
-53 -25 -55 -25 -11 0 -210 -118 -264 -157 -75 -53 -122 -64 -173 -38 -19 10
-83 65 -142 124 -90 88 -122 129 -193 243 -46 75 -84 143 -84 151 0 16 45 160
60 192 5 11 25 61 45 110 34 83 53 120 130 260 16 28 65 104 111 170 268 390
393 589 379 603 -7 7 -212 -87 -262 -120 -23 -15 -90 -80 -150 -144 -59 -63
-134 -133 -166 -155 -69 -46 -132 -68 -148 -52 -6 6 -15 50 -20 97 -14 138
-49 185 -191 257 -32 16 -59 35 -59 42 -5 54 21 101 124 219 64 74 88 111 101
153 22 67 18 87 -17 99 -38 14 -69 -12 -135 -110 -99 -147 -126 -163 -178
-107 l-33 36 -53 -39 c-56 -42 -184 -124 -193 -124 -3 0 -22 -11 -43 -23 -58
-37 -172 -76 -226 -79 l-50 -3 -14 50 c-7 28 -17 66 -22 85 -4 19 -17 71 -29
115 -42 166 -40 174 78 299 95 102 111 141 118 293 8 165 0 175 -97 123z
m-1475 -1484 c22 -4 99 -14 170 -22 72 -9 135 -19 140 -24 6 -4 42 -13 80 -20
39 -7 84 -18 100 -25 17 -7 53 -18 80 -25 28 -7 84 -26 125 -43 91 -36 344
-159 348 -169 2 -5 8 -8 14 -8 6 0 37 -18 70 -40 33 -22 64 -40 68 -40 5 0 10
-3 12 -7 2 -5 28 -25 59 -46 30 -20 66 -48 79 -62 13 -14 27 -25 32 -25 25 0
249 -217 389 -377 10 -12 19 -27 19 -32 0 -5 4 -11 8 -13 7 -2 52 -61 119
-154 12 -15 29 -43 65 -104 17 -30 34 -57 37 -60 12 -11 136 -268 156 -325 11
-33 26 -69 32 -80 5 -11 16 -42 23 -70 6 -27 18 -64 26 -82 8 -17 14 -40 14
-52 0 -19 -6 -21 -65 -21 -72 0 -73 -1 -51 -65 8 -23 20 -88 27 -145 7 -58 17
-111 22 -117 6 -8 34 -13 72 -13 l63 0 7 -57 c9 -76 9 -437 1 -488 -4 -22 -14
-98 -22 -170 -9 -71 -19 -134 -24 -140 -4 -5 -13 -41 -20 -80 -7 -38 -18 -83
-25 -100 -7 -16 -18 -52 -25 -80 -7 -27 -18 -59 -25 -70 -6 -11 -15 -32 -18
-47 -4 -14 -10 -33 -13 -42 -5 -14 7 -16 99 -16 l106 0 -10 -30 c-15 -41 -158
-319 -170 -330 -3 -3 -16 -25 -30 -50 -13 -24 -32 -52 -41 -62 -10 -9 -29 -37
-44 -60 -44 -70 -171 -215 -298 -340 -65 -65 -120 -118 -123 -118 -2 0 -39
-29 -81 -65 -42 -36 -82 -65 -89 -65 -7 0 -16 -6 -20 -13 -10 -15 -119 -87
-132 -87 -5 0 -11 -3 -13 -7 -5 -13 -54 -39 -221 -123 l-159 -79 -121 -3
c-106 -3 -131 -7 -192 -32 -38 -15 -108 -36 -154 -47 -46 -11 -91 -24 -101
-29 -9 -5 -73 -17 -141 -26 -68 -9 -135 -22 -148 -28 -34 -16 -609 -15 -642 1
-13 6 -69 16 -123 23 -54 6 -124 20 -155 29 -31 10 -86 24 -123 31 -38 8 -68
17 -68 22 0 4 -3 7 -7 6 -12 -3 -123 34 -129 43 -3 5 37 9 88 10 73 0 88 3 68
11 -32 13 -279 135 -305 150 -11 7 -46 29 -78 50 -32 21 -60 38 -64 38 -6 0
-91 62 -149 110 -17 14 -44 34 -60 45 -70 48 -372 353 -383 387 -2 7 -26 39
-54 72 -27 33 -54 70 -60 83 -5 13 -14 23 -19 23 -4 0 -8 5 -8 12 0 6 -7 19
-16 29 -24 27 -194 355 -208 402 -5 15 -19 17 -114 17 l-109 0 -20 48 c-40 92
-62 158 -79 237 -9 44 -20 85 -25 90 -4 6 -16 67 -25 135 -9 69 -22 136 -28
149 -7 16 -11 124 -11 328 l0 303 -62 0 -62 0 5 33 c17 126 36 234 46 267 l13
39 70 3 70 3 16 65 c8 36 18 72 22 80 4 8 15 40 26 70 41 117 69 180 141 320
121 231 244 406 395 562 36 37 65 72 65 77 0 6 5 11 11 11 6 0 34 23 63 52 50
51 99 93 214 183 31 25 62 50 69 55 7 6 15 10 19 10 4 0 21 10 38 23 52 39
185 112 306 170 103 49 227 101 240 102 3 0 10 3 15 6 6 3 33 12 60 19 28 6
64 18 80 25 17 7 62 18 100 25 39 7 75 16 80 20 11 9 238 40 293 40 21 0 44 5
52 10 16 11 365 7 435 -4z"/>
<path d="M3768 5886 c-90 -33 -156 -107 -165 -185 l-6 -51 -70 0 -70 0 7 -46
c7 -54 67 -136 118 -163 18 -10 56 -30 83 -46 147 -85 147 -85 220 -85 58 0
80 -5 135 -32 36 -18 67 -37 69 -41 2 -5 22 -18 45 -28 22 -11 68 -35 101 -54
75 -42 140 -77 183 -100 25 -13 51 -16 111 -14 73 4 81 6 125 43 63 52 94 103
102 171 l7 55 -72 0 c-59 0 -73 3 -77 18 -24 72 -92 146 -169 184 -51 25 -112
58 -156 85 -19 12 -48 29 -64 37 l-30 16 63 0 c35 0 61 3 58 8 -2 4 -22 16
-43 27 -21 11 -40 22 -43 25 -3 3 -27 17 -55 30 -27 14 -52 27 -55 31 -3 3
-52 31 -110 63 -117 64 -177 77 -242 52z"/>
<path d="M6110 5894 c-9 -3 -45 -20 -80 -39 -36 -19 -83 -44 -105 -55 -22 -11
-67 -36 -100 -55 -157 -89 -171 -95 -240 -95 -63 0 -70 -2 -217 -85 -83 -47
-166 -96 -185 -110 -36 -28 -73 -91 -73 -125 0 -18 6 -20 64 -20 l63 0 7 -62
c9 -76 23 -104 76 -152 53 -48 81 -58 155 -57 66 0 94 7 140 35 47 27 253 144
325 183 36 19 70 38 75 42 6 3 -16 8 -48 11 l-58 5 38 20 c21 11 40 22 43 26
3 3 44 27 92 53 116 63 178 136 178 211 0 24 2 25 70 25 l70 0 0 29 c0 35 -19
91 -31 91 -5 0 -9 6 -9 13 0 18 -57 71 -99 92 -33 17 -122 28 -151 19z"/>
<path d="M4800 4489 c-110 -19 -248 -51 -277 -64 -17 -8 -35 -15 -39 -15 -22
0 -271 -123 -334 -165 -25 -16 -49 -36 -53 -42 -4 -7 -14 -13 -21 -13 -6 0
-52 -38 -102 -85 l-89 -84 108 -1 108 0 -76 -94 c-41 -51 -75 -97 -75 -101 0
-3 -14 -26 -31 -50 -48 -67 -63 -148 -41 -229 11 -41 56 -103 87 -120 11 -6
22 -14 25 -17 11 -14 113 -31 148 -25 46 8 112 36 112 48 0 4 7 8 15 8 9 0 19
8 22 18 4 9 9 19 12 22 8 6 85 122 90 135 6 14 171 178 191 190 10 5 38 24 62
41 73 53 135 84 220 111 44 14 85 26 92 27 6 1 16 4 21 8 6 3 62 11 125 18 88
9 143 9 230 0 62 -6 118 -14 124 -18 6 -3 17 -7 23 -8 7 -1 43 -12 80 -24 59
-19 96 -36 192 -90 107 -60 297 -247 341 -335 3 -5 18 -29 34 -52 51 -75 172
-118 264 -93 91 26 145 84 168 181 13 54 12 66 -3 111 -9 29 -36 81 -60 116
-24 36 -43 66 -43 68 0 2 -7 12 -16 22 -8 9 -36 43 -61 75 l-45 57 -110 0
-110 0 -64 59 c-73 68 -198 171 -208 171 -4 0 -26 12 -49 28 -36 24 -79 46
-210 108 -16 8 -33 14 -38 14 -5 0 -28 9 -52 20 -38 18 -168 49 -292 70 -62
11 -334 10 -395 -1z"/>
<path d="M1468 8996 c-26 -20 -22 -49 12 -79 37 -33 66 -35 74 -4 9 36 7 72
-6 85 -16 16 -59 15 -80 -2z"/>
<path d="M4272 8990 c-6 -11 -12 -31 -12 -45 0 -38 46 -103 86 -123 34 -16 36
-16 50 3 8 10 14 42 14 73 0 46 -4 58 -29 83 -36 36 -89 40 -109 9z"/>
<path d="M7353 8621 c-37 -27 -69 -82 -56 -95 25 -25 87 14 117 73 30 57 1 67
-61 22z"/>
<path d="M1090 8536 c0 -2 7 -19 15 -39 21 -50 85 -101 177 -139 53 -22 83
-40 88 -54 5 -12 19 -24 32 -27 13 -4 32 -23 43 -44 11 -21 32 -43 46 -50 15
-7 30 -24 33 -37 11 -44 118 -63 151 -26 9 10 15 25 12 33 -6 17 -73 37 -126
37 -37 0 -42 3 -55 35 -8 19 -19 35 -25 35 -5 0 -24 16 -42 35 -19 19 -43 35
-55 35 -17 0 -24 8 -29 30 -8 38 -81 113 -131 135 -94 41 -105 45 -119 45 -8
0 -15 -2 -15 -4z"/>
<path d="M850 7921 c-31 -9 -35 -27 -15 -74 11 -27 21 -37 38 -37 66 1 90 33
67 90 -13 31 -35 36 -90 21z"/>
<path d="M1729 7289 c-18 -34 6 -49 60 -39 25 4 51 6 58 3 7 -3 13 0 13 5 0 6
-9 13 -19 17 -11 3 -22 12 -25 20 -9 24 -73 19 -87 -6z"/>
<path d="M1996 7221 c-40 -76 -6 -166 67 -178 33 -5 37 -3 37 15 0 37 -30 136
-48 161 -26 36 -39 36 -56 2z"/>
<path d="M1460 6871 c0 -31 22 -82 34 -78 16 5 20 65 5 83 -16 20 -39 17 -39
-5z"/>
<path d="M8335 4208 c-49 -28 -47 -63 4 -79 75 -22 113 8 73 57 -22 28 -52 36
-77 22z"/>
<path d="M8613 3690 c-43 -26 -43 -45 -1 -36 36 7 58 23 58 42 0 19 -19 17
-57 -6z"/>
<path d="M2209 2553 c-29 -4 -44 -34 -26 -52 15 -15 60 -14 75 1 17 17 15 45
-4 52 -9 3 -16 5 -17 5 -1 -1 -14 -4 -28 -6z"/>
<path d="M8390 2189 c-6 -11 -10 -24 -8 -28 2 -5 38 -41 82 -80 86 -78 113
-87 140 -45 10 14 16 29 14 34 -2 4 -36 38 -77 74 -59 53 -80 66 -107 66 -23
0 -37 -6 -44 -21z"/>
<path d="M7104 1883 c4 -21 9 -55 12 -76 8 -49 30 -60 102 -53 32 4 87 9 125
12 47 4 67 10 67 19 0 25 -77 80 -137 97 -174 50 -177 50 -169 1z"/>
<path d="M8730 1881 c0 -25 5 -32 26 -37 31 -8 74 10 74 30 0 19 -9 24 -58 32
-42 7 -42 6 -42 -25z"/>
<path d="M2775 1728 c-44 -46 -206 -211 -360 -368 -402 -408 -581 -616 -759
-885 -121 -183 -237 -395 -216 -395 31 0 403 368 556 550 178 210 340 421 527
685 43 61 139 195 213 299 73 104 134 191 134 193 0 14 -28 -9 -95 -79z"/>
<path d="M7438 1753 c7 -3 16 -2 19 1 4 3 -2 6 -13 5 -11 0 -14 -3 -6 -6z"/>
<path d="M8360 1715 c0 -15 7 -40 16 -57 16 -31 17 -31 31 -12 22 30 -1 94
-33 94 -8 0 -14 -11 -14 -25z"/>
<path d="M7663 1484 c6 -53 23 -77 37 -54 14 22 12 53 -6 78 -25 36 -37 27
-31 -24z"/>
<path d="M5847 1344 c-15 -16 3 -133 40 -259 14 -44 47 -41 51 4 4 36 -21 160
-43 221 -12 34 -33 48 -48 34z"/>
<path d="M7885 1269 c-8 -12 53 -102 107 -159 71 -75 229 -180 272 -180 27 0
18 23 -35 100 -62 88 -119 144 -192 188 -64 39 -144 66 -152 51z"/>
<path d="M6426 754 c-7 -19 11 -89 32 -121 40 -63 58 16 22 95 -19 43 -43 55
-54 26z"/>
<path d="M4247 543 c-4 -3 -7 -11 -7 -17 0 -6 5 -5 12 2 6 6 9 14 7 17 -3 3
-9 2 -12 -2z"/>
</g>
</svg>
